<svg xmlns="http://www.w3.org/2000/svg" xmlns:xlink="http://www.w3.org/1999/xlink" viewBox="0 0 2000 1491.03"><defs><style>.cls-1{fill:#1c4b4f;}.cls-2{fill:url(#linear-gradient);}.cls-3{fill:#231f20;}</style><linearGradient id="linear-gradient" x1="1000" y1="835.41" x2="1000" y2="1415.61" gradientUnits="userSpaceOnUse"><stop offset="0" stop-color="#fafdfe"/><stop offset="0.64" stop-color="#fafdfe"/><stop offset="0.7" stop-color="#fafdfe" stop-opacity="0.99"/><stop offset="0.75" stop-color="#fafdfe" stop-opacity="0.95"/><stop offset="0.79" stop-color="#fafdfe" stop-opacity="0.88"/><stop offset="0.83" stop-color="#fafdfe" stop-opacity="0.79"/><stop offset="0.87" stop-color="#fafdfe" stop-opacity="0.67"/><stop offset="0.9" stop-color="#fafdfe" stop-opacity="0.52"/><stop offset="0.94" stop-color="#fafdfe" stop-opacity="0.35"/><stop offset="0.98" stop-color="#fafdfe" stop-opacity="0.15"/><stop offset="1" stop-color="#fafdfe" stop-opacity="0"/></linearGradient></defs><title>slopes_slopes_slopes</title><g id="smiles"><rect class="cls-1" width="1997.94" height="1089.87"/><path class="cls-2" d="M2000,1415.61H0V1016c74.35,2,102.54,1.14,126.71,1.14,64.12,0,71.29.76,183.84.55,147.31-.28,84.64-128.51,149.24-127.18,70.64,1.46,6.52,122.57,204.54,122.87,88.08.13,443.74,7.7,571,2.62,317.06-12.64,235.76-180.56,308.93-180.56,81.3,0,8.21,166.69,203.25,180.56,41.77,3,57.55,4.09,102.36,0,138.69-12.65,127.22-84.25,150.12-104.65Z"/><path class="cls-3" d="M456.25,900.43c-16.75-2.31-19.63,16.49-22.57,28.45-.78,3.2,4.15,4.56,4.94,1.36,2.06-8.38,3.58-26.62,16.27-24.87,3.22.44,4.61-4.49,1.36-4.94Z"/><path class="cls-3" d="M432,946c3.29,0,3.3-5.12,0-5.12s-3.3,5.12,0,5.12Z"/><path class="cls-3" d="M1265.25,1029.75a205.23,205.23,0,0,0,72.67-8.19c3.15-.95,1.81-5.89-1.36-4.94a201.09,201.09,0,0,1-71.31,8c-3.28-.22-3.27,4.9,0,5.11Z"/><path class="cls-3" d="M1351.58,1017.36c3.29,0,3.29-5.12,0-5.12s-3.3,5.12,0,5.12Z"/><path class="cls-3" d="M1552.45,846.42c3.29,0,3.3-5.11,0-5.11s-3.3,5.11,0,5.11Z"/><path class="cls-3" d="M1560.05,850.49c4.67,1.82,7.26,6.25,9.59,10.41,2.59,4.61,5,9.21,6,14.44.63,3.23,5.56,1.86,4.93-1.36-1.28-6.52-4.53-12.55-8-18.19-2.8-4.58-6.11-8.25-11.19-10.23-3.07-1.2-4.4,3.75-1.36,4.93Z"/><path class="cls-3" d="M241.28,1030.17q20.92.55,41.85-.57c3.27-.17,3.29-5.29,0-5.11q-20.92,1.11-41.85.57c-3.3-.09-3.29,5,0,5.11Z"/><path class="cls-3" d="M656.49,1032.43c3.3,0,3.3-5.12,0-5.12s-3.3,5.12,0,5.12Z"/><path class="cls-3" d="M668.48,1032.67l90.91-1c3.29,0,3.3-5.15,0-5.11l-90.91,1c-3.29,0-3.3,5.16,0,5.12Z"/><path class="cls-3" d="M773.9,1030.93c3.3,0,3.3-5.11,0-5.11s-3.3,5.11,0,5.11Z"/></g></svg>