<svg id="Layer_1" data-name="Layer 1" xmlns="http://www.w3.org/2000/svg" xmlns:xlink="http://www.w3.org/1999/xlink" viewBox="0 0 2000 669.17"><defs><style>.cls-1{fill:url(#linear-gradient);}.cls-2{fill:#231f20;}</style><linearGradient id="linear-gradient" x1="1000" y1="495.56" x2="1000" y2="-84.62" gradientTransform="matrix(1, 0, 0, -1, 0, 509.12)" gradientUnits="userSpaceOnUse"><stop offset="0" stop-color="#fafdfe"/><stop offset="0.64" stop-color="#fafdfe"/><stop offset="0.7" stop-color="#fafdfe" stop-opacity="0.99"/><stop offset="0.75" stop-color="#fafdfe" stop-opacity="0.95"/><stop offset="0.79" stop-color="#fafdfe" stop-opacity="0.88"/><stop offset="0.83" stop-color="#fafdfe" stop-opacity="0.79"/><stop offset="0.87" stop-color="#fafdfe" stop-opacity="0.67"/><stop offset="0.9" stop-color="#fafdfe" stop-opacity="0.52"/><stop offset="0.94" stop-color="#fafdfe" stop-opacity="0.35"/><stop offset="0.98" stop-color="#fafdfe" stop-opacity="0.15"/><stop offset="1" stop-color="#fafdfe" stop-opacity="0"/></linearGradient></defs><title>slopes_small</title><g id="smiles"><path class="cls-1" d="M2000,593.74H0V194.11c74.35,2,102.54,1.13,126.71,1.13,64.12,0,71.29.77,183.84.55,147.31-.28,84.64-128.5,149.24-127.17,70.64,1.46,6.52,122.57,204.54,122.87,88.08.13,443.74,7.7,571,2.62C1552.4,181.47,1471.1,13.56,1544.27,13.56c81.3,0,8.21,166.69,203.25,180.56,41.77,3,57.55,4.09,102.36,0C1988.57,181.46,1977.1,109.86,2000,89.46Z"/><path class="cls-2" d="M456.25,78.56C439.5,76.25,436.62,95,433.68,107c-.78,3.2,4.15,4.56,4.94,1.36,2.06-8.38,3.58-26.62,16.27-24.87,3.22.44,4.61-4.49,1.36-4.94Z"/><path class="cls-2" d="M432,124.1c3.29,0,3.3-5.12,0-5.12S428.7,124.1,432,124.1Z"/><path class="cls-2" d="M1265.25,207.89a205.49,205.49,0,0,0,72.67-8.19c3.15-.95,1.81-5.89-1.36-4.94a201.1,201.1,0,0,1-71.31,8c-3.28-.22-3.27,4.89,0,5.11Z"/><path class="cls-2" d="M1351.58,195.5c3.29,0,3.29-5.12,0-5.12S1348.28,195.5,1351.58,195.5Z"/><path class="cls-2" d="M1552.45,24.56c3.29,0,3.3-5.12,0-5.12S1549.15,24.56,1552.45,24.56Z"/><path class="cls-2" d="M1560.05,28.63c4.67,1.82,7.26,6.25,9.59,10.41,2.59,4.61,5,9.21,6,14.44.63,3.23,5.56,1.86,4.93-1.36-1.28-6.52-4.53-12.56-8-18.19-2.8-4.58-6.11-8.26-11.19-10.23-3.07-1.2-4.4,3.75-1.36,4.93Z"/><path class="cls-2" d="M241.28,208.31q20.92.54,41.85-.57c3.27-.17,3.29-5.29,0-5.12q-20.92,1.13-41.85.57C238,203.11,238,208.19,241.28,208.31Z"/><path class="cls-2" d="M656.49,210.56c3.3,0,3.3-5.12,0-5.12S653.19,210.56,656.49,210.56Z"/><path class="cls-2" d="M668.48,210.81l90.91-1c3.29,0,3.3-5.15,0-5.12l-90.91,1C665.19,205.69,665.18,210.84,668.48,210.81Z"/><path class="cls-2" d="M773.9,209.07c3.3,0,3.3-5.12,0-5.12S770.6,209.07,773.9,209.07Z"/></g></svg>