<svg xmlns="http://www.w3.org/2000/svg" viewBox="0 0 2000 254.48"><defs><style>.cls-1{fill:#1c4b4f;}</style></defs><title>slopes_slopes_slopes</title><g id="smiles"><path class="cls-1" d="M1798.9,33.66c-16,0-30.89,1.06-53.4,2.66C1626.43,44.8,1605.94,111.19,1591,159.66c-9.72,31.48-17.39,56.35-47.57,56.35-22.16,0-28.89-16.2-39.08-40.73-10.94-26.35-24.57-59.15-63.9-86.83a2.4,2.4,0,1,0-2.77,3.93c38.19,26.88,51.52,59,62.23,84.75,10.14,24.41,18.15,43.69,43.52,43.69,33.73,0,42.27-27.69,52.17-59.74,15.36-49.77,34.47-111.72,150.26-120,41.5-3,57-4.06,101.49,0,102.89,9.39,121.7,52.07,134.15,80.32,4.48,10.17,8.35,18.95,15,24.18a2.4,2.4,0,1,0,3-3.77c-5.7-4.5-9.35-12.77-13.57-22.35C1973,90.22,1953.47,46,1847.76,36.33,1827.07,34.44,1812.59,33.66,1798.9,33.66Z"/><path class="cls-1" d="M1425.22,79.18a2,2,0,0,0-.92.19,1.73,1.73,0,0,0-.77.53,2.26,2.26,0,0,0-.72,1.69,2.41,2.41,0,0,0,.72,1.72,2,2,0,0,0,.77.49,2.39,2.39,0,0,0,3.32-2.21,2.3,2.3,0,0,0-.72-1.69,1.78,1.78,0,0,0-.77-.53A2,2,0,0,0,1425.22,79.18Z"/><path class="cls-1" d="M1105.75,34.59c-98.42,0-219.47,1.65-310.27,2.89-57.49.79-102.89,1.41-127.77,1.45-39.22.06-70.22,4.73-94.77,14.28a2.4,2.4,0,1,0,1.74,4.47c23.65-9.19,55-13.88,93-13.94,24.9,0,70.32-.66,127.82-1.45,139.26-1.9,349.69-4.78,440.33-1.16,72.81,2.9,131,14.54,173,34.57a2.4,2.4,0,0,0,2.07-4.34c-42.59-20.32-101.43-32.11-174.89-35C1204.46,35.06,1158.33,34.59,1105.75,34.59Z"/><path class="cls-1" d="M560.13,59.23a2.25,2.25,0,0,0-1.68.72,2.34,2.34,0,0,0-.72,1.68,2.48,2.48,0,0,0,3.32,2.26,2.78,2.78,0,0,0,1.49-2.26,2.54,2.54,0,0,0-1.49-2.21A2.74,2.74,0,0,0,560.13,59.23Z"/><path class="cls-1" d="M279.18,34.6c-42.39,0-65.52.18-86.43.33-17.87.14-34.37.26-60.07.26-5,0-10.29,0-16.28-.08C92.89,34.93,60.72,34.7,2,36.32A2.41,2.41,0,0,0,2,41.13H2.1c58.67-1.62,90.81-1.39,114.26-1.22,6,.05,11.35.09,16.32.09,25.71,0,42.23-.12,60.1-.26,26.24-.19,56-.4,122.86-.29,86.26.16,98.54,45,108.42,81.06C430.74,144.9,436.53,166,463.14,166h1.07c27.74-.57,35.89-19,45.32-40.32,7.43-16.78,15.84-35.81,35.4-51.33,1.36-1.08,2.79-2.15,4.26-3.2a2.4,2.4,0,0,0-2.78-3.92q-2.32,1.65-4.47,3.36c-20.48,16.25-29.15,35.85-36.8,53.14-9.49,21.46-16.35,37-41,37.46h-.9c-23,0-28.09-18.56-34.51-42-9.76-35.63-23.13-84.42-113-84.6C302.05,34.62,290,34.6,279.18,34.6Z"/></g></svg>